# Alias OBJ Model File
# Exported from SketchUp, (c) 2000-2012 Trimble Navigation Limited
# File units = meters

mtllib test 4.mtl

g Mesh1 Model

usemtl FrontColor
v 1.00753 7.84 1.83382
vt -39.6664 240.717
vn -2.18696e-16 0.806504 -0.591228
v -1.02204 7.84 1.83382
vt 40.2377 240.717
v -1.02204 9.58975 4.22068
vt 40.2377 357.233
v -3.67247 9.58975 4.22068
vt 144.586 357.233
v -3.67247 11.63 7.00382
vt 144.586 493.094
v 1.00753 11.63 7.00382
vt -39.6664 493.094
f 1/1/1 2/2/1 3/3/1 4/4/1 5/5/1 6/6/1 

v 1.00753 0 1.83382
vt -39.6664 0
vn 0 0 -1
v -3.67247 0 1.83382
vt 144.586 0
v -3.67247 5.45017 1.83382
vt 144.586 214.574
v -1.02204 5.45017 1.83382
vt 40.2377 214.574
vt 40.2377 308.661
vt -39.6664 308.661
f 7/7/2 8/8/2 9/9/2 10/10/2 2/11/2 1/12/2 

v 1.00753 0 12.1738
vt -39.6664 -479.284
vn 0 -1 -0
v -3.67247 0 12.1738
vt 144.586 -479.284
vt 144.586 -72.1978
vt -39.6664 -72.1978
f 11/13/3 12/14/3 8/15/3 7/16/3 

vt -144.586 0
vn 0 0 1
vt 39.6664 0
v 1.00753 7.84 12.1738
vt 39.6664 308.661
v -3.67247 7.84 12.1738
vt -144.586 308.661
f 12/17/4 11/18/4 13/19/4 14/20/4 

usemtl Translucent_Glass_Gray
vt -479.284 0
vn 1 0 -0
v 1.00753 3.08952 10.887
vt -428.622 121.634
vt -479.284 308.661
f 11/21/5 15/22/5 13/23/5

vt -72.1978 0
f 15/22/5 11/21/5 7/24/5

v 1.00753 3.08952 9.657
vt -380.197 121.634
f 15/22/5 7/24/5 16/25/5

v 1.00753 6.73911 9.657
vt -380.197 265.319
f 16/25/5 7/24/5 17/26/5

v 1.00753 4.99911 5.74697
vt -226.259 196.815
f 17/26/5 7/24/5 18/27/5

v 1.00753 4.99911 4.37697
vt -172.322 196.815
f 18/27/5 7/24/5 19/28/5

v 1.00753 6.73911 4.37697
vt -172.322 265.319
f 19/28/5 7/24/5 20/29/5

vt -72.1978 308.661
f 1/30/5 20/29/5 7/24/5

v 1.00753 6.73911 5.74697
vt -226.259 265.319
f 1/30/5 21/31/5 20/29/5

vt -275.741 457.874
f 6/32/5 21/31/5 1/30/5

f 21/31/5 6/32/5 18/27/5

f 17/26/5 18/27/5 6/32/5

v 1.00753 6.73911 10.887
vt -428.622 265.319
f 6/32/5 22/33/5 17/26/5

f 13/23/5 22/33/5 6/32/5

f 22/33/5 13/23/5 15/22/5

usemtl FrontColor
vt 39.6664 -204.055
vn 0 0.806504 0.591228
vt 39.6664 48.3218
vt -144.586 48.3218
vt -144.586 -204.055
f 13/34/6 6/35/6 5/36/6 14/37/6 

g Mesh2 Model

v -3.67247 7.84 27.0938
vt 1066.69 308.661
vn -1 3.62505e-16 -1.02578e-16
v -3.67247 7.81821 26.7196
vt 1051.95 307.803
v -3.67247 0 27.0938
vt 1066.69 -5.2413e-14
f 23/38/7 24/39/7 25/40/7

v -3.67247 11.63 21.9238
vt 863.143 457.874
f 24/39/7 23/38/7 26/41/7

v -3.67247 11.3149 21.955
vt 864.371 445.469
f 24/39/7 26/41/7 27/42/7

v -3.67247 10.2867 20.5656
vt 809.667 404.99
f 27/42/7 26/41/7 28/43/7

v -3.67247 9.58975 19.1407
vt 753.57 377.549
f 28/43/7 26/41/7 29/44/7

v -3.67247 10.1487 20.379
vt 802.324 399.556
f 28/43/7 29/44/7 30/45/7

v -3.67247 9.35882 19.3116
vt 760.298 368.457
f 30/45/7 29/44/7 31/46/7

v -1.02204 9.35882 19.3116
vt 40.2377 -156.064
vn 3.66557e-15 -0.594831 -0.803851
vt 144.586 -156.064
vt 144.586 -144.754
v -1.02204 9.58975 19.1407
vt 40.2377 -144.754
f 32/47/8 31/48/8 29/49/8 33/50/8 

v -1.02204 5.45017 17.2322
vt 678.433 214.574
vn -1 9.39821e-16 9.22758e-16
v -1.02204 7.81821 17.2296
vt 678.33 307.803
v -1.02204 7.84 16.7538
vt 659.599 308.661
v -1.02204 5.45017 16.7538
vt 659.599 214.574
f 34/51/9 35/52/9 32/46/9 33/44/9 36/53/9 37/54/9 

v -3.67247 5.45017 16.7538
vt -144.586 -659.599
vn 8.17124e-16 1 5.69987e-32
v -3.67247 5.45017 17.2322
vt -144.586 -678.433
vt -40.2377 -678.433
vt -40.2377 -659.599
f 38/55/10 39/56/10 34/57/10 37/58/10 

v -3.67247 0 16.7538
vt 659.599 -5.2413e-14
f 40/59/7 39/51/7 38/54/7

v -3.67247 0.42716 17.2336
vt 678.49 16.8173
f 40/59/7 41/60/7 39/51/7

v -3.67247 0.42716 23.2374
vt 914.858 16.8173
f 40/59/7 42/61/7 41/60/7

v -3.67247 0.42716 23.5285
vt 926.317 16.8173
f 40/59/7 43/62/7 42/61/7

v -3.67247 0.42716 26.7196
vt 1051.95 16.8173
f 40/59/7 44/63/7 43/62/7

f 25/40/7 44/63/7 40/59/7

f 44/63/7 25/40/7 24/39/7

v -3.67247 3.82716 23.2374
vt 914.858 150.676
f 42/61/7 43/62/7 45/64/7

v -3.67247 4.14716 23.5285
vt 926.317 163.274
f 46/65/7 45/64/7 43/62/7

v -3.67247 4.14716 17.2336
vt 678.49 163.274
f 45/64/7 46/65/7 47/66/7

vt -144.586 -678.49
vn 0 1 -0
vt -144.586 -926.317
v -1.61247 4.14716 23.5285
vt -63.4832 -926.317
v -1.61247 4.14716 23.2985
vt -63.4832 -917.262
v 0.567527 4.14716 23.2985
vt 22.3436 -917.262
v 0.567527 4.14716 17.2336
vt 22.3436 -678.49
f 47/67/11 46/68/11 48/69/11 49/70/11 50/71/11 51/72/11 

v 0.567527 0.42716 23.5285
vt 22.3436 16.8173
v 0.567527 7.81821 23.5285
vt 22.3436 307.803
v -3.67247 7.81821 23.5285
vt -144.586 307.803
v -3.67247 6.90716 23.5285
vt -144.586 271.935
v -1.61247 6.90716 23.5285
vt -63.4832 271.935
vt -63.4832 163.274
vt -144.586 163.274
vt -144.586 16.8173
v -1.19868 0.42716 23.5285
vt -47.192 16.8173
v -1.19868 3.38716 23.5285
vt -47.192 133.353
v 0.181322 3.38716 23.5285
vt 7.13867 133.353
v 0.181322 0.42716 23.5285
vt 7.13867 16.8173
f 52/73/4 53/74/4 54/75/4 55/76/4 56/77/4 48/78/4 46/79/4 43/80/4 57/81/4 58/82/4 59/83/4 60/84/4 

vt 22.3436 -926.317
v 0.567527 7.81821 20.5656
vt 22.3436 -809.667
v -3.67247 7.81821 20.5656
vt -144.586 -809.667
f 53/85/11 61/86/11 62/87/11 54/68/11 

v 0.567527 10.2867 20.5656
vt 22.3436 404.99
vt -144.586 404.99
f 62/75/4 61/74/4 63/88/4 28/89/4 

vt 809.667 307.803
f 28/43/7 30/45/7 62/90/7

v -3.67247 7.54716 20.379
vt 802.324 297.132
f 64/91/7 62/90/7 30/45/7

v -3.67247 7.54716 23.2985
vt 917.262 297.132
f 65/92/7 62/90/7 64/91/7

vt 926.317 307.803
f 65/92/7 54/93/7 62/90/7

vt 926.317 271.935
f 54/93/7 65/92/7 55/94/7

v -3.67247 6.90716 23.2985
vt 917.262 271.935
f 66/95/7 55/94/7 65/92/7

vn -1 0 -0
v -1.61247 6.90716 23.2985
vt 917.262 163.274
f 48/65/12 56/94/12 67/95/12 49/96/12 

v -3.67247 3.82716 17.2336
vt 678.49 150.676
f 45/64/7 47/66/7 68/97/7

f 68/97/7 47/66/7 39/51/7

f 68/97/7 39/51/7 41/60/7

